<svg width="92" height="32" viewBox="0 0 92 32" fill="none" xmlns="http://www.w3.org/2000/svg">
<path d="M0 0H92V32H0V0Z" fill="url(#paint0_linear_1_17)"/>
<path d="M17.9307 7.56364V9.49062H10.1107V15.4601H15.1289V17.3871H10.1107V24.32H8.0198V7.56364H17.9307Z" fill="black"/>
<path d="M21.0355 24.32V11.3757H23.1264V12.7791C23.433 12.3322 23.8721 11.9412 24.4436 11.6061C25.0152 11.257 25.6355 11.0825 26.3046 11.0825C27.4336 11.0825 28.3049 11.3199 28.9182 11.7946C29.5455 12.2554 30.0821 13.0723 30.5282 14.2452L28.6464 15.104C28.4512 14.5175 28.263 14.0847 28.0818 13.8054C27.9006 13.5121 27.6776 13.3097 27.4127 13.198C27.1479 13.0723 26.7785 13.0095 26.3046 13.0095C25.1755 13.0095 24.36 13.4214 23.8582 14.2452C23.3703 15.0551 23.1264 16.1303 23.1264 17.4708V24.32H21.0355Z" fill="black"/>
<path d="M38.1911 7.56364C39.4317 7.56364 40.4145 7.72422 41.1393 8.04538C41.8781 8.36655 42.4078 8.89018 42.7284 9.61629C43.049 10.3284 43.2093 11.2919 43.2093 12.5068C43.2093 13.7914 43.049 14.7898 42.7284 15.502C42.4078 16.2001 41.8851 16.7028 41.1602 17.01C40.4493 17.3033 39.4596 17.4499 38.1911 17.4499H35.2848V24.32H33.1939V7.56364H35.2639L35.2848 7.54269V7.56364H38.1911ZM38.1911 15.5229C38.9996 15.5229 39.606 15.4461 40.0102 15.2925C40.4145 15.1389 40.7002 14.8527 40.8675 14.4337C41.0348 14.0148 41.1184 13.3725 41.1184 12.5068C41.1184 11.7108 41.0348 11.0964 40.8675 10.6636C40.7002 10.2307 40.4075 9.93047 39.9893 9.76291C39.5711 9.58138 38.9717 9.49062 38.1911 9.49062H35.2848V15.5229H38.1911Z" fill="black"/>
<path d="M46.1468 24.32V11.3757H48.2377V12.7791C48.5444 12.3322 48.9835 11.9412 49.555 11.6061C50.1265 11.257 50.7468 11.0825 51.4159 11.0825C52.545 11.0825 53.4162 11.3199 54.0295 11.7946C54.6568 12.2554 55.1935 13.0723 55.6395 14.2452L53.7577 15.104C53.5625 14.5175 53.3744 14.0847 53.1932 13.8054C53.0119 13.5121 52.7889 13.3097 52.5241 13.198C52.2592 13.0723 51.8898 13.0095 51.4159 13.0095C50.2868 13.0095 49.4713 13.4214 48.9695 14.2452C48.4816 15.0551 48.2377 16.1303 48.2377 17.4708V24.32H46.1468Z" fill="black"/>
<path d="M62.8843 24.6132C61.6297 24.6132 60.6331 24.3898 59.8943 23.943C59.1694 23.4961 58.6467 22.784 58.3261 21.8065C58.0194 20.8291 57.8661 19.5095 57.8661 17.8479C57.8661 16.1862 58.0194 14.8666 58.3261 13.8892C58.6467 12.9117 59.1694 12.1996 59.8943 11.7527C60.6331 11.3059 61.6297 11.0825 62.8843 11.0825C64.1388 11.0825 65.1285 11.3059 65.8534 11.7527C66.5922 12.1996 67.1149 12.9117 67.4215 13.8892C67.7421 14.8666 67.9025 16.1862 67.9025 17.8479C67.9025 19.5095 67.7421 20.8291 67.4215 21.8065C67.1149 22.784 66.5922 23.4961 65.8534 23.943C65.1285 24.3898 64.1388 24.6132 62.8843 24.6132ZM62.8843 22.6863C63.6509 22.6863 64.2364 22.5396 64.6406 22.2464C65.0588 21.9532 65.3585 21.4644 65.5397 20.7802C65.7209 20.082 65.8115 19.1046 65.8115 17.8479C65.8115 16.5911 65.7209 15.6207 65.5397 14.9364C65.3585 14.2383 65.0588 13.7425 64.6406 13.4493C64.2364 13.1561 63.6509 13.0095 62.8843 13.0095C62.1176 13.0095 61.5252 13.1561 61.107 13.4493C60.7028 13.7425 60.41 14.2383 60.2288 14.9364C60.0476 15.6207 59.957 16.5911 59.957 17.8479C59.957 19.1046 60.0476 20.082 60.2288 20.7802C60.41 21.4644 60.7028 21.9532 61.107 22.2464C61.5252 22.5396 62.1176 22.6863 62.8843 22.6863Z" fill="black"/>
<path d="M74.1436 28.4253C73.2236 28.4253 72.4848 28.2996 71.9272 28.0483C71.3696 27.8109 70.826 27.378 70.2963 26.7497L71.8227 25.4511C72.199 25.8839 72.5266 26.1632 72.8054 26.2889C73.0981 26.4285 73.5442 26.4983 74.1436 26.4983C74.8963 26.4983 75.4678 26.3936 75.8581 26.1841C76.2624 25.9747 76.5412 25.6116 76.6945 25.095C76.8618 24.5923 76.9454 23.8452 76.9454 22.8538V13.3027H74.3108V11.3757H79.0363V22.8538C79.0363 24.2502 78.876 25.3463 78.5554 26.1423C78.2487 26.9521 77.7399 27.5316 77.029 27.8807C76.3321 28.2438 75.3702 28.4253 74.1436 28.4253ZM77.489 9.30211C76.8478 9.30211 76.4087 9.1904 76.1718 8.96698C75.9348 8.74356 75.8163 8.33164 75.8163 7.7312C75.8163 7.13076 75.9348 6.71884 76.1718 6.49542C76.4087 6.272 76.8478 6.16029 77.489 6.16029C78.1302 6.16029 78.5693 6.272 78.8063 6.49542C79.0433 6.71884 79.1618 7.13076 79.1618 7.7312C79.1618 8.33164 79.0433 8.74356 78.8063 8.96698C78.5693 9.1904 78.1302 9.30211 77.489 9.30211Z" fill="black"/>
<defs>
<linearGradient id="paint0_linear_1_17" x1="17.25" y1="9.6" x2="85.6295" y2="29.3765" gradientUnits="userSpaceOnUse">
<stop stop-color="#89AABD"/>
<stop offset="1" stop-color="#96CDCA"/>
</linearGradient>
</defs>
</svg>
